<svg  viewBox="0 -5 50 50" xmlns="http://www.w3.org/2000/svg">
    <path d="M0.008 16.125v-0.067c0-1.771 1.242-2.979 2.9-2.979 1.404 0 2.45 0.688 2.587 2.125h-1.354c-0.096-0.704-0.492-1.079-1.225-1.079-0.921 0-1.512 0.717-1.512 1.929v0.067c0 1.208 0.554 1.913 1.521 1.913 0.725 0 1.233-0.367 1.338-1.121h1.3c-0.146 1.446-1.183 2.187-2.621 2.187-1.913 0-2.933-1.175-2.933-2.975z"></path><path d="M6.533 13.171h1.329v5.838h-1.329v-5.838z"></path><path d="M10.379 14.2h-1.617v-1.029h4.567v1.029h-1.617v4.808h-1.329v-4.808h-0.004z"></path><path d="M15.563 16.496l-1.929-3.325h1.454l1.183 2.238 1.158-2.238h1.283l-1.821 3.325v2.517h-1.329v-2.517z"></path><path d="M19.533 13.171v5.842h2.4c1.346 0 2.050-0.563 2.050-1.633v-0.033c0-0.783-0.408-1.217-1.167-1.371 0.65-0.187 0.946-0.637 0.946-1.25v-0.033c0-1-0.663-1.521-1.938-1.521h-2.292zM21.613 15.571h-0.792v-1.496h0.783c0.621 0 0.9 0.221 0.9 0.713v0.033c0 0.521-0.254 0.75-0.892 0.75zM22.671 17.271c0 0.529-0.292 0.825-0.946 0.825h-0.908v-1.675h0.842c0.717 0 1.012 0.279 1.012 0.817v0.033z"></path><path d="M25.062 13.171h1.325v4.8h2.375v1.038h-3.7v-5.838z"></path><path d="M29.142 16.058v0.067c0 1.708 1.167 2.975 2.996 2.975 1.821 0 3.012-1.267 3.012-3.004v-0.067c0-1.758-1.25-2.942-3.004-2.942-1.729 0-3.004 1.233-3.004 2.971zM33.771 16.046v0.067c0 1.175-0.621 1.933-1.608 1.937-0.954 0-1.642-0.737-1.642-1.929v-0.067c0-1.179 0.612-1.921 1.625-1.921 1.021 0 1.625 0.779 1.625 1.913z"></path><path d="M35.846 16.125v-0.067c0-1.771 1.242-2.979 2.9-2.979 1.404 0 2.45 0.688 2.588 2.125h-1.354c-0.1-0.704-0.492-1.079-1.225-1.079-0.921 0-1.512 0.717-1.512 1.929v0.067c0 1.208 0.554 1.913 1.521 1.913 0.725 0 1.233-0.367 1.337-1.121h1.3c-0.146 1.446-1.183 2.187-2.621 2.187-1.913 0-2.933-1.175-2.933-2.975z"></path><path d="M42.337 13.171h1.325v2.517l2.042-2.525h1.404l-2.313 2.767 2.425 3.079h-1.542l-2.017-2.621v2.621h-1.325v-5.838z"></path><path d="M34.829 20.533v4.142l-20.708 5.671v-9.604h-1.333v11.225l23.375-6.4v-5.033h-1.333z"></path><path d="M34.829 11.425v-4.1l-20.708-5.671v9.604h-1.333v-11.225l23.375 6.4v4.992h-1.333z"></path>
</svg>